#N canvas 935 149 419 235 10;
#N canvas 175 337 626 487 sampler 0;
#X floatatom 22 398 5 0 0 0 - - -;
#X floatatom 47 369 5 0 0 0 - - -;
#X floatatom 72 341 5 0 0 0 - - -;
#X floatatom 97 318 5 0 0 0 - - -;
#X obj 22 420 sample sample1;
#X obj 22 276 route 60 64 67 72;
#X obj 281 107 unpack f f f;
#X obj 22 253 spigot;
#X obj 216 225 == 2;
#X obj 354 225 == 3;
#X obj 482 225 == 4;
#X floatatom 183 398 5 0 0 0 - - -;
#X floatatom 208 369 5 0 0 0 - - -;
#X floatatom 233 341 5 0 0 0 - - -;
#X floatatom 258 318 5 0 0 0 - - -;
#X obj 183 420 sample sample1;
#X obj 183 276 route 60 64 67 72;
#X obj 183 253 spigot;
#X floatatom 321 398 5 0 0 0 - - -;
#X floatatom 346 369 5 0 0 0 - - -;
#X floatatom 371 341 5 0 0 0 - - -;
#X floatatom 396 318 5 0 0 0 - - -;
#X obj 321 420 sample sample1;
#X obj 321 276 route 60 64 67 72;
#X obj 321 253 spigot;
#X floatatom 450 398 5 0 0 0 - - -;
#X floatatom 475 369 5 0 0 0 - - -;
#X floatatom 500 341 5 0 0 0 - - -;
#X floatatom 525 318 5 0 0 0 - - -;
#X obj 450 420 sample sample1;
#X obj 450 276 route 60 64 67 72;
#X obj 450 253 spigot;
#X obj 192 50 inlet f;
#X obj 159 84 spigot;
#X obj 158 26 r keytrigger;
#X obj 55 225 == 1;
#X obj 291 64 switch~;
#X floatatom 291 32 5 0 0 0 - - -;
#X connect 0 0 4 0;
#X connect 5 0 0 0;
#X connect 5 1 1 0;
#X connect 5 2 2 0;
#X connect 5 3 3 0;
#X connect 6 2 8 0;
#X connect 6 2 9 0;
#X connect 6 2 10 0;
#X connect 6 2 35 0;
#X connect 7 0 5 0;
#X connect 8 0 17 1;
#X connect 9 0 24 1;
#X connect 10 0 31 1;
#X connect 11 0 15 0;
#X connect 16 0 11 0;
#X connect 16 1 12 0;
#X connect 16 2 13 0;
#X connect 16 3 14 0;
#X connect 17 0 16 0;
#X connect 18 0 22 0;
#X connect 23 0 18 0;
#X connect 23 1 19 0;
#X connect 23 2 20 0;
#X connect 23 3 21 0;
#X connect 24 0 23 0;
#X connect 25 0 29 0;
#X connect 30 0 25 0;
#X connect 30 1 26 0;
#X connect 30 2 27 0;
#X connect 30 3 28 0;
#X connect 31 0 30 0;
#X connect 32 0 33 1;
#X connect 33 0 6 0;
#X connect 33 0 17 0;
#X connect 33 0 24 0;
#X connect 33 0 31 0;
#X connect 33 0 7 0;
#X connect 34 0 33 0;
#X connect 35 0 7 1;
#X connect 37 0 36 0;
#X restore 20 45 pd sampler;
#X obj 20 21 tgl 15 0 empty empty empty 17 7 0 10 -262144 -1 -1 0 1
;
#N canvas 68 489 450 300 midi 0;
#X obj 156 173 send keytrigger;
#X obj 159 35 notein;
#X obj 174 71 > 0;
#X obj 153 102 pack f f f;
#X connect 1 0 3 0;
#X connect 1 1 2 0;
#X connect 1 2 3 2;
#X connect 2 0 3 1;
#X connect 3 0 0 0;
#X restore 20 70 pd midi;
#N canvas 562 341 599 416 test 0;
#X obj 238 371 s keytrigger;
#X msg 83 243 \$1 \$2 \$3;
#X msg 191 184 \$1 \$2 \$3;
#X msg 303 123 \$1 \$2 \$3;
#X msg 412 65 \$1 \$2 \$3;
#X msg 88 142 60 1 2;
#X msg 139 142 64 1 2;
#X msg 190 142 67 1 2;
#X msg 244 142 72 1 2;
#X msg 305 30 60 1 4;
#X msg 357 29 64 1 4;
#X msg 412 28 67 1 4;
#X msg 465 27 72 1 4;
#X msg -20 205 60 1 1;
#X msg 32 204 64 1 1;
#X msg 83 203 67 1 1;
#X msg 136 202 72 1 1;
#X msg 200 81 60 1 3;
#X msg 252 82 64 1 3;
#X msg 303 82 67 1 3;
#X msg 355 80 72 1 3;
#X connect 1 0 0 0;
#X connect 2 0 0 0;
#X connect 3 0 0 0;
#X connect 4 0 0 0;
#X connect 5 0 2 0;
#X connect 6 0 2 0;
#X connect 7 0 2 0;
#X connect 8 0 2 0;
#X connect 9 0 4 0;
#X connect 10 0 4 0;
#X connect 11 0 4 0;
#X connect 12 0 4 0;
#X connect 13 0 1 0;
#X connect 14 0 1 0;
#X connect 15 0 1 0;
#X connect 16 0 1 0;
#X connect 17 0 3 0;
#X connect 18 0 3 0;
#X connect 19 0 3 0;
#X connect 20 0 3 0;
#X restore 20 93 pd test;
#X obj 22 161 tgl 15 0 empty empty empty 17 7 0 10 -262144 -1 -1 0
1;
#X obj 91 118 tgl 15 1 empty empty empty 17 7 0 10 -262144 -1 -1 0
1;
#N canvas 291 380 1127 454 keyboard 0;
#X obj 319 3 keyname;
#X obj 320 123 route q w e r t y u i a s d f g h j k;
#X obj 319 30 pack f s;
#X msg 319 84 \$2 \$1;
#X msg 448 241 60 \$1 3;
#X msg 503 241 64 \$1 3;
#X msg 556 241 67 \$1 3;
#X msg 611 241 72 \$1 3;
#X msg 669 241 60 \$1 4;
#X msg 724 241 64 \$1 4;
#X msg 777 241 67 \$1 4;
#X msg 832 241 72 \$1 4;
#X obj 319 57 spigot;
#X msg 8 242 60 \$1 1;
#X msg 63 242 64 \$1 1;
#X msg 116 242 67 \$1 1;
#X msg 171 242 72 \$1 1;
#X msg 229 242 60 \$1 2;
#X msg 284 242 64 \$1 2;
#X msg 337 242 67 \$1 2;
#X msg 392 242 72 \$1 2;
#X obj 380 40 inlet f;
#X obj 419 375 send keytrigger;
#X connect 0 0 2 0;
#X connect 0 1 2 1;
#X connect 1 0 13 0;
#X connect 1 1 14 0;
#X connect 1 2 15 0;
#X connect 1 3 16 0;
#X connect 1 4 17 0;
#X connect 1 5 18 0;
#X connect 1 6 19 0;
#X connect 1 7 20 0;
#X connect 1 8 4 0;
#X connect 1 9 5 0;
#X connect 1 10 6 0;
#X connect 1 11 7 0;
#X connect 1 12 8 0;
#X connect 1 13 9 0;
#X connect 1 14 10 0;
#X connect 1 15 11 0;
#X connect 2 0 12 0;
#X connect 3 0 1 0;
#X connect 4 0 22 0;
#X connect 5 0 22 0;
#X connect 6 0 22 0;
#X connect 7 0 22 0;
#X connect 8 0 22 0;
#X connect 9 0 22 0;
#X connect 10 0 22 0;
#X connect 11 0 22 0;
#X connect 12 0 3 0;
#X connect 13 0 22 0;
#X connect 14 0 22 0;
#X connect 15 0 22 0;
#X connect 16 0 22 0;
#X connect 17 0 22 0;
#X connect 18 0 22 0;
#X connect 19 0 22 0;
#X connect 20 0 22 0;
#X connect 21 0 12 1;
#X restore 22 183 pd keyboard;
#X obj 22 118 tgl 15 1 empty empty empty 17 7 0 10 -262144 -1 -1 0
1;
#N canvas 123 74 947 495 keytoggle 0;
#X msg 28 161 60 1 1;
#X msg 34 341 60 1 3;
#X msg 482 338 60 0 3;
#X msg 538 338 64 0 3;
#X msg 591 338 67 0 3;
#X msg 646 338 72 0 3;
#X obj 671 400 send keytrigger;
#X msg 806 156 67 0 2;
#X msg 861 156 72 0 2;
#X msg 702 337 60 0 4;
#X msg 757 337 64 0 4;
#X msg 810 337 67 0 4;
#X msg 865 337 72 0 4;
#X obj 665 220 send keytrigger;
#X msg 476 158 60 0 1;
#X msg 532 158 64 0 1;
#X msg 585 158 67 0 1;
#X msg 640 158 72 0 1;
#X msg 696 157 60 0 2;
#X msg 751 157 64 0 2;
#X obj 223 403 send keytrigger;
#X obj 217 223 send keytrigger;
#X msg 84 161 64 1 1;
#X msg 137 161 67 1 1;
#X msg 192 161 72 1 1;
#X msg 248 160 60 1 2;
#X msg 303 160 64 1 2;
#X msg 358 159 67 1 2;
#X msg 413 159 72 1 2;
#X msg 90 341 64 1 3;
#X msg 143 341 67 1 3;
#X msg 198 341 72 1 3;
#X msg 254 340 60 1 4;
#X msg 309 340 64 1 4;
#X msg 362 340 67 1 4;
#X msg 417 340 72 1 4;
#X obj 574 107 route 113 119 101 114 116 121 117 105;
#X obj 477 19 inlet f;
#X obj 429 19 keyup;
#X obj 429 50 spigot;
#X obj 126 110 route 49 50 51 52 53 54 55 56;
#X obj 132 290 route 97 115 100 102 103 104 106 107;
#X obj 580 287 route 122 120 99 118 98 110 109 44;
#X obj 429 78 s togglekey;
#X obj 126 80 r togglekey;
#X obj 574 77 r togglekey;
#X obj 580 257 r togglekey;
#X obj 132 260 r togglekey;
#X obj 296 19 r serialkey;
#X obj 296 48 spigot;
#X obj 296 76 s togglekey;
#X obj 373 17 inlet f;
#X connect 0 0 21 0;
#X connect 1 0 20 0;
#X connect 2 0 6 0;
#X connect 3 0 6 0;
#X connect 4 0 6 0;
#X connect 5 0 6 0;
#X connect 7 0 13 0;
#X connect 8 0 13 0;
#X connect 9 0 6 0;
#X connect 10 0 6 0;
#X connect 11 0 6 0;
#X connect 12 0 6 0;
#X connect 14 0 13 0;
#X connect 15 0 13 0;
#X connect 16 0 13 0;
#X connect 17 0 13 0;
#X connect 18 0 13 0;
#X connect 19 0 13 0;
#X connect 22 0 21 0;
#X connect 23 0 21 0;
#X connect 24 0 21 0;
#X connect 25 0 21 0;
#X connect 26 0 21 0;
#X connect 27 0 21 0;
#X connect 28 0 21 0;
#X connect 29 0 20 0;
#X connect 30 0 20 0;
#X connect 31 0 20 0;
#X connect 32 0 20 0;
#X connect 33 0 20 0;
#X connect 34 0 20 0;
#X connect 35 0 20 0;
#X connect 36 0 14 0;
#X connect 36 1 15 0;
#X connect 36 2 16 0;
#X connect 36 3 17 0;
#X connect 36 4 18 0;
#X connect 36 5 19 0;
#X connect 36 6 7 0;
#X connect 36 7 8 0;
#X connect 37 0 39 1;
#X connect 38 0 39 0;
#X connect 39 0 43 0;
#X connect 40 0 0 0;
#X connect 40 1 22 0;
#X connect 40 2 23 0;
#X connect 40 3 24 0;
#X connect 40 4 25 0;
#X connect 40 5 26 0;
#X connect 40 6 27 0;
#X connect 40 7 28 0;
#X connect 41 0 1 0;
#X connect 41 1 29 0;
#X connect 41 2 30 0;
#X connect 41 3 31 0;
#X connect 41 4 32 0;
#X connect 41 5 33 0;
#X connect 41 6 34 0;
#X connect 41 7 35 0;
#X connect 42 0 2 0;
#X connect 42 1 3 0;
#X connect 42 2 4 0;
#X connect 42 3 5 0;
#X connect 42 4 9 0;
#X connect 42 5 10 0;
#X connect 42 6 11 0;
#X connect 42 7 12 0;
#X connect 44 0 40 0;
#X connect 45 0 36 0;
#X connect 46 0 42 0;
#X connect 47 0 41 0;
#X connect 48 0 49 0;
#X connect 49 0 50 0;
#X connect 51 0 49 1;
#X restore 22 138 pd keytoggle;
#X text 172 113 WIP and Testing Patches;
#X connect 1 0 0 0;
#X connect 4 0 6 0;
#X connect 5 0 8 1;
#X connect 7 0 8 0;
