#N canvas 831 70 273 184 10;
#N canvas 322 303 1104 543 synth 0;
#X obj 291 233 tgl 15 0 empty empty 1 5 8 0 10 -262144 -1 -1 0 1;
#X obj 350 233 tgl 15 0 empty empty 2 5 8 0 10 -262144 -1 -1 0 1;
#X obj 409 233 tgl 15 0 empty empty 3 5 8 0 10 -262144 -1 -1 0 1;
#X obj 471 233 tgl 15 0 empty empty 4 5 8 0 10 -262144 -1 -1 0 1;
#X obj 687 241 tgl 15 0 empty empty 1 5 8 0 10 -262144 -1 -1 0 1;
#X obj 747 243 tgl 15 0 empty empty 2 5 8 0 10 -262144 -1 -1 0 1;
#X obj 805 241 tgl 15 0 empty empty 3 5 8 0 10 -262144 -1 -1 0 1;
#X obj 867 241 tgl 15 0 empty empty 4 5 8 0 10 -262144 -1 -1 0 1;
#X obj 684 477 tgl 15 0 empty empty 1 5 8 0 10 -262144 -1 -1 0 1;
#X obj 749 477 tgl 15 0 empty empty 2 5 8 0 10 -262144 -1 -1 0 1;
#X obj 804 476 tgl 15 0 empty empty 3 5 8 0 10 -262144 -1 -1 0 1;
#X obj 866 476 tgl 15 0 empty empty 4 5 8 0 10 -262144 -1 -1 0 1;
#X obj 33 138 unpack f f f;
#X obj 387 115 spigot;
#X obj 421 93 == 1;
#X obj 792 101 == 2;
#X obj 438 332 == 3;
#X obj 790 337 == 4;
#X obj 759 123 spigot;
#X obj 405 354 spigot;
#X obj 758 359 spigot;
#X obj 33 74 spigot;
#X obj 33 50 r keytrigger;
#X obj 120 50 inlet f;
#X obj 307 476 tgl 15 0 empty empty 1 5 8 0 10 -262144 -1 -1 0 1;
#X obj 366 476 tgl 15 0 empty empty 2 5 8 0 10 -262144 -1 -1 0 1;
#X obj 425 476 tgl 15 0 empty empty 3 5 8 0 10 -262144 -1 -1 0 1;
#X obj 487 477 tgl 15 0 empty empty 4 5 8 0 10 -262144 -1 -1 0 1;
#X msg 405 378 \$1 \$1 \$2 \$3;
#X msg 759 147 \$1 \$1 \$2 \$3;
#X msg 387 139 \$1 \$1 \$2 \$3;
#X msg 758 383 \$1 \$1 \$2 \$3;
#X obj 48 315 catch~ synthaudio;
#X obj 48 362 dac~;
#X obj 291 209 voice-1;
#X obj 387 168 route 60 64 67 72 76 79;
#X obj 759 176 route 60 64 67 72 76 79;
#X obj 405 405 route 60 64 67 72 76 79;
#X obj 758 411 route 60 64 67 72 76 79;
#X obj 102 166 s routechannel;
#X obj 54 111 s routenote;
#X obj 387 35 r routenote;
#X obj 421 63 r routechannel;
#X obj 758 41 r routenote;
#X obj 792 69 r routechannel;
#X obj 405 271 r routenote;
#X obj 437 299 r routechannel;
#X obj 758 275 r routenote;
#X obj 789 302 r routechannel;
#X obj 530 234 tgl 15 0 empty empty 5 5 8 0 10 -262144 -1 -1 0 1;
#X obj 592 234 tgl 15 0 empty empty 6 5 8 0 10 -262144 -1 -1 0 1;
#X obj 927 241 tgl 15 0 empty empty 5 5 8 0 10 -262144 -1 -1 0 1;
#X obj 989 241 tgl 15 0 empty empty 6 5 8 0 10 -262144 -1 -1 0 1;
#X obj 545 476 tgl 15 0 empty empty 5 5 8 0 10 -262144 -1 -1 0 1;
#X obj 607 476 tgl 15 0 empty empty 6 5 8 0 10 -262144 -1 -1 0 1;
#X obj 924 476 tgl 15 0 empty empty 5 5 8 0 10 -262144 -1 -1 0 1;
#X obj 986 476 tgl 15 0 empty empty 6 5 8 0 10 -262144 -1 -1 0 1;
#X obj 307 452 voice-3;
#X obj 684 452 voice-4;
#X obj 471 209 voice-1;
#X obj 350 209 voice-1;
#X obj 409 209 voice-1;
#X obj 592 210 voice-1;
#X obj 530 210 voice-1;
#X obj 989 217 voice-2;
#X obj 366 450 voice-3;
#X obj 425 452 voice-3;
#X obj 487 452 voice-3;
#X obj 545 452 voice-3;
#X obj 607 452 voice-3;
#X obj 749 452 voice-4;
#X obj 804 452 voice-4;
#X obj 866 452 voice-4;
#X obj 924 452 voice-4;
#X obj 986 452 voice-4;
#X obj 687 217 voice-2;
#X obj 747 218 voice-2;
#X obj 805 217 voice-2;
#X obj 867 217 voice-2;
#X obj 927 217 voice-2;
#X connect 12 2 39 0;
#X connect 13 0 30 0;
#X connect 14 0 13 1;
#X connect 15 0 18 1;
#X connect 16 0 19 1;
#X connect 17 0 20 1;
#X connect 18 0 29 0;
#X connect 19 0 28 0;
#X connect 20 0 31 0;
#X connect 21 0 12 0;
#X connect 21 0 40 0;
#X connect 22 0 21 0;
#X connect 23 0 21 1;
#X connect 28 0 37 0;
#X connect 29 0 36 0;
#X connect 30 0 35 0;
#X connect 31 0 38 0;
#X connect 32 0 33 0;
#X connect 32 0 33 1;
#X connect 34 0 0 0;
#X connect 35 0 34 0;
#X connect 35 1 60 0;
#X connect 35 2 61 0;
#X connect 35 3 59 0;
#X connect 35 4 63 0;
#X connect 35 5 62 0;
#X connect 36 0 75 0;
#X connect 36 1 76 0;
#X connect 36 2 77 0;
#X connect 36 3 78 0;
#X connect 36 4 79 0;
#X connect 36 5 64 0;
#X connect 37 0 57 0;
#X connect 37 1 65 0;
#X connect 37 2 66 0;
#X connect 37 3 67 0;
#X connect 37 4 68 0;
#X connect 37 5 69 0;
#X connect 38 0 58 0;
#X connect 38 1 70 0;
#X connect 38 2 71 0;
#X connect 38 3 72 0;
#X connect 38 4 73 0;
#X connect 38 5 74 0;
#X connect 41 0 13 0;
#X connect 42 0 14 0;
#X connect 43 0 18 0;
#X connect 44 0 15 0;
#X connect 45 0 19 0;
#X connect 46 0 16 0;
#X connect 47 0 20 0;
#X connect 48 0 17 0;
#X connect 57 0 24 0;
#X connect 58 0 8 0;
#X connect 59 0 3 0;
#X connect 60 0 1 0;
#X connect 61 0 2 0;
#X connect 62 0 50 0;
#X connect 63 0 49 0;
#X connect 64 0 52 0;
#X connect 65 0 25 0;
#X connect 66 0 26 0;
#X connect 67 0 27 0;
#X connect 68 0 53 0;
#X connect 69 0 54 0;
#X connect 70 0 9 0;
#X connect 71 0 10 0;
#X connect 72 0 11 0;
#X connect 73 0 55 0;
#X connect 74 0 56 0;
#X connect 75 0 4 0;
#X connect 76 0 5 0;
#X connect 77 0 6 0;
#X connect 78 0 7 0;
#X connect 79 0 51 0;
#X restore 120 40 pd synth;
#X obj 120 19 tgl 15 1 empty empty empty 17 7 0 10 -262144 -1 -1 1
1;
#X msg 38 94 \; pd dsp 1;
#X obj 38 71 loadbang;
#X obj 37 20 tgl 15 1 empty empty empty 17 7 0 10 -262144 -1 -1 1 1
;
#N canvas 355 496 803 163 serial 0;
#X obj 26 -87 s serialkey;
#X obj 26 -186 loadbang;
#X msg 26 -153 pollintervall 10;
#X obj 26 -120 comport 0 9600;
#X msg 184 -137 open 2;
#X text 183 -160 Mac testing;
#X msg 99 -185 devices;
#X obj 273 -85 s serialkey;
#X obj 273 -184 loadbang;
#X msg 273 -151 pollintervall 10;
#X text 430 -158 Mac testing;
#X msg 431 -135 open 3;
#X obj 273 -118 comport 1 9600;
#X obj 529 -84 s serialkey;
#X obj 529 -183 loadbang;
#X msg 529 -150 pollintervall 10;
#X text 686 -157 Mac testing;
#X obj 529 -117 comport 2 9600;
#X msg 687 -134 open 4;
#X connect 1 0 2 0;
#X connect 2 0 3 0;
#X connect 3 0 0 0;
#X connect 4 0 3 0;
#X connect 6 0 3 0;
#X connect 8 0 9 0;
#X connect 9 0 12 0;
#X connect 11 0 12 0;
#X connect 12 0 7 0;
#X connect 14 0 15 0;
#X connect 15 0 17 0;
#X connect 17 0 13 0;
#X connect 18 0 17 0;
#X restore 116 69 pd serial;
#X obj 94 19 tgl 15 0 empty empty empty 17 7 0 10 -262144 -1 -1 0 1
;
#N canvas 76 48 1379 761 keycaps 0;
#X obj 536 5 inlet f;
#X obj 488 5 keyup;
#X obj 488 36 spigot;
#X obj 488 64 s routekey;
#X obj 333 4 r serialkey;
#X obj 333 33 spigot;
#X obj 410 5 inlet f;
#X obj 333 61 s routekey;
#X obj 252 72 print;
#X obj 328 125 r routekey;
#X msg 17 216 60 1 1;
#X obj 322 299 send keytrigger;
#X obj 966 209 r routekey;
#X obj 960 383 send keytrigger;
#X obj 393 360 r routekey;
#X obj 387 534 send keytrigger;
#X obj 860 524 r routekey;
#X obj 854 698 send keytrigger;
#X msg 74 216 64 1 1;
#X msg 128 216 67 1 1;
#X msg 186 215 72 1 1;
#X msg 242 216 76 1 1;
#X msg 303 216 79 1 1;
#X msg 382 222 60 0 1;
#X msg 439 222 64 0 1;
#X msg 493 222 67 0 1;
#X msg 551 221 72 0 1;
#X msg 607 222 76 0 1;
#X msg 668 222 79 0 1;
#X msg 52 459 60 1 3;
#X msg 109 459 64 1 3;
#X msg 163 459 67 1 3;
#X msg 221 458 72 1 3;
#X msg 277 459 76 1 3;
#X msg 338 459 79 1 3;
#X msg 418 463 60 0 3;
#X msg 475 463 64 0 3;
#X msg 529 463 67 0 3;
#X msg 587 462 72 0 3;
#X msg 643 463 76 0 3;
#X msg 704 463 79 0 3;
#X msg 579 628 60 1 4;
#X msg 636 628 64 1 4;
#X msg 690 628 67 1 4;
#X msg 748 627 72 1 4;
#X msg 804 628 76 1 4;
#X msg 867 628 79 1 4;
#X msg 945 632 60 0 4;
#X msg 1002 632 64 0 4;
#X msg 1056 632 67 0 4;
#X msg 1114 631 72 0 4;
#X msg 1170 632 76 0 4;
#X msg 1231 632 79 0 4;
#X msg 628 304 60 1 2;
#X msg 685 304 64 1 2;
#X msg 739 304 67 1 2;
#X msg 797 303 72 1 2;
#X msg 853 304 76 1 2;
#X msg 914 304 79 1 2;
#X msg 994 308 60 0 2;
#X msg 1051 308 64 0 2;
#X msg 1105 308 67 0 2;
#X msg 1163 307 72 0 2;
#X msg 1219 308 76 0 2;
#X msg 1280 308 79 0 2;
#X obj 198 165 route 65 87 90 81 77 84;
#X obj 435 164 route 97 119 122 113 109 116;
#X obj 836 250 route 68 89 78 74 66 70;
#X obj 1073 248 route 100 121 110 106 98 102;
#X obj 730 564 route 86 82 83 75 71 85;
#X obj 967 564 route 118 114 115 107 103 117;
#X obj 263 400 route 60 72 88 73 67 69;
#X obj 499 397 route 44 104 120 105 99 101;
#X connect 0 0 2 1;
#X connect 1 0 2 0;
#X connect 2 0 3 0;
#X connect 4 0 5 0;
#X connect 5 0 7 0;
#X connect 5 0 8 0;
#X connect 6 0 5 1;
#X connect 9 0 65 0;
#X connect 9 0 66 0;
#X connect 10 0 11 0;
#X connect 12 0 67 0;
#X connect 12 0 68 0;
#X connect 14 0 71 0;
#X connect 14 0 72 0;
#X connect 16 0 69 0;
#X connect 16 0 70 0;
#X connect 18 0 11 0;
#X connect 19 0 11 0;
#X connect 20 0 11 0;
#X connect 21 0 11 0;
#X connect 22 0 11 0;
#X connect 23 0 11 0;
#X connect 24 0 11 0;
#X connect 25 0 11 0;
#X connect 26 0 11 0;
#X connect 27 0 11 0;
#X connect 28 0 11 0;
#X connect 29 0 15 0;
#X connect 30 0 15 0;
#X connect 31 0 15 0;
#X connect 32 0 15 0;
#X connect 33 0 15 0;
#X connect 34 0 15 0;
#X connect 35 0 15 0;
#X connect 36 0 15 0;
#X connect 37 0 15 0;
#X connect 38 0 15 0;
#X connect 39 0 15 0;
#X connect 40 0 15 0;
#X connect 41 0 17 0;
#X connect 42 0 17 0;
#X connect 43 0 17 0;
#X connect 44 0 17 0;
#X connect 45 0 17 0;
#X connect 46 0 17 0;
#X connect 47 0 17 0;
#X connect 48 0 17 0;
#X connect 49 0 17 0;
#X connect 50 0 17 0;
#X connect 51 0 17 0;
#X connect 52 0 17 0;
#X connect 53 0 13 0;
#X connect 54 0 13 0;
#X connect 55 0 13 0;
#X connect 56 0 13 0;
#X connect 57 0 13 0;
#X connect 58 0 13 0;
#X connect 59 0 13 0;
#X connect 60 0 13 0;
#X connect 61 0 13 0;
#X connect 62 0 13 0;
#X connect 63 0 13 0;
#X connect 64 0 13 0;
#X connect 65 0 10 0;
#X connect 65 1 18 0;
#X connect 65 2 19 0;
#X connect 65 3 20 0;
#X connect 65 4 21 0;
#X connect 65 5 22 0;
#X connect 66 0 23 0;
#X connect 66 1 24 0;
#X connect 66 2 25 0;
#X connect 66 3 26 0;
#X connect 66 4 27 0;
#X connect 66 5 28 0;
#X connect 67 0 53 0;
#X connect 67 1 54 0;
#X connect 67 2 55 0;
#X connect 67 3 56 0;
#X connect 67 4 57 0;
#X connect 67 5 58 0;
#X connect 68 0 59 0;
#X connect 68 1 60 0;
#X connect 68 2 61 0;
#X connect 68 3 62 0;
#X connect 68 4 63 0;
#X connect 68 5 64 0;
#X connect 69 0 41 0;
#X connect 69 1 42 0;
#X connect 69 2 43 0;
#X connect 69 3 44 0;
#X connect 69 4 45 0;
#X connect 69 5 46 0;
#X connect 70 0 47 0;
#X connect 70 1 48 0;
#X connect 70 2 49 0;
#X connect 70 3 50 0;
#X connect 70 4 51 0;
#X connect 70 5 52 0;
#X connect 71 0 29 0;
#X connect 71 1 30 0;
#X connect 71 2 31 0;
#X connect 71 3 32 0;
#X connect 71 4 33 0;
#X connect 71 5 34 0;
#X connect 72 0 35 0;
#X connect 72 1 36 0;
#X connect 72 2 37 0;
#X connect 72 3 38 0;
#X connect 72 4 39 0;
#X connect 72 5 40 0;
#X restore 37 42 pd keycaps;
#X text 18 138 Reach • Scott Garner • 2013-09-18;
#X connect 1 0 0 0;
#X connect 3 0 2 0;
#X connect 4 0 7 0;
#X connect 6 0 7 1;
