#N canvas 491 53 891 397 10;
#X obj 124 23 inlet s;
#X obj 49 64 inlet f;
#X obj 50 181 tabplay~ \$0-sound;
#X obj 47 254 dac~;
#X obj 50 115 tgl 15 0 empty empty on_/_off 17 7 0 10 -262144 -1 -1
0 1;
#X obj 119 215 spigot;
#X obj 50 151 sel 1;
#X obj 50 222 *~;
#X obj 384 243 soundfiler;
#X obj 384 162 symbol \$0-sound;
#X obj 384 191 pack s s;
#X msg 384 217 read -resize \$2 \$1;
#X obj 493 163 symbol samples/flute-c5.wav;
#N canvas 0 22 450 300 (subpatch) 0;
#X array \$0-sound 71614 float 2;
#X coords 0 1 71614 -1 200 140 1;
#X restore 171 125 graph;
#X obj 384 85 loadbang;
#X obj 384 112 t b b;
#X connect 1 0 4 0;
#X connect 2 0 7 0;
#X connect 2 1 5 0;
#X connect 4 0 5 1;
#X connect 4 0 6 0;
#X connect 4 0 7 1;
#X connect 5 0 2 0;
#X connect 6 0 2 0;
#X connect 7 0 3 0;
#X connect 7 0 3 1;
#X connect 9 0 10 0;
#X connect 10 0 11 0;
#X connect 11 0 8 0;
#X connect 12 0 10 1;
#X connect 14 0 15 0;
#X connect 15 0 9 0;
#X connect 15 1 12 0;
