#N canvas 0 22 560 444 10;
#X obj -29 37 inlet;
#X obj -29 72 unpack f f;
#X obj -29 151 mtof;
#X obj -29 321 *~;
#X obj 71 175 sel 0;
#X floatatom -77 118 5 0 0 0 - - -;
#X text -153 118 note number;
#X floatatom 73 118 5 0 0 0 - - -;
#X text 112 119 velocity;
#X obj 105 273 vline~;
#X obj 28 366 outlet;
#X obj 28 336 != 0;
#X obj -43 210 vline~;
#X text 124 174 zero velocity == noteoff;
#X obj -44 238 phasor~;
#X obj -102 266 *~;
#X obj -102 239 phasor~;
#X obj -102 184 vline~;
#X obj -44 182 * 0.98;
#X obj 304 192 switch~;
#X obj 265 88 route 0;
#X msg 251 143 0;
#X floatatom 304 160 5 0 0 0 - - -;
#X obj -29 361 *~ 0.25;
#X obj -30 391 throw~ synthaudio;
#X msg 73 222 0 200;
#X msg 134 223 0 \, 1 200;
#X obj 251 114 del 200;
#X connect 0 0 1 0;
#X connect 1 0 2 0;
#X connect 1 0 5 0;
#X connect 1 1 4 0;
#X connect 1 1 7 0;
#X connect 1 1 11 0;
#X connect 1 1 20 0;
#X connect 2 0 17 0;
#X connect 2 0 18 0;
#X connect 3 0 23 0;
#X connect 4 0 25 0;
#X connect 4 1 26 0;
#X connect 9 0 3 1;
#X connect 11 0 10 0;
#X connect 12 0 14 0;
#X connect 14 0 15 1;
#X connect 15 0 3 0;
#X connect 16 0 15 0;
#X connect 17 0 16 0;
#X connect 18 0 12 0;
#X connect 20 0 27 0;
#X connect 20 1 22 0;
#X connect 21 0 22 0;
#X connect 22 0 19 0;
#X connect 23 0 24 0;
#X connect 25 0 9 0;
#X connect 26 0 9 0;
#X connect 27 0 21 0;
