#N canvas 438 293 572 421 10;
#X obj 153 27 inlet;
#X obj 153 62 unpack f f;
#X obj 152 149 mtof;
#X obj 153 311 *~;
#X obj 253 165 sel 0;
#X floatatom 105 108 5 0 0 0 - - -;
#X text 29 108 note number;
#X floatatom 255 108 5 0 0 0 - - -;
#X text 294 109 velocity;
#X obj 287 263 vline~;
#X obj 210 356 outlet;
#X obj 210 326 != 0;
#X text 306 164 zero velocity == noteoff;
#X obj 122 236 expr~ $v1 > 0.5;
#X obj 494 184 switch~;
#X obj 455 80 route 0;
#X msg 441 135 0;
#X floatatom 494 152 5 0 0 0 - - -;
#X obj 152 351 *~ 0.25;
#X obj 152 381 throw~ synthaudio;
#X msg 255 212 0 200;
#X obj 441 106 del 200;
#X msg 316 213 1 200;
#X obj 122 209 phasor~;
#X obj 122 275 bp~ 1280 3;
#X obj 152 120 - 12;
#X connect 0 0 1 0;
#X connect 1 0 5 0;
#X connect 1 0 25 0;
#X connect 1 1 4 0;
#X connect 1 1 7 0;
#X connect 1 1 11 0;
#X connect 1 1 15 0;
#X connect 2 0 23 0;
#X connect 3 0 18 0;
#X connect 4 0 20 0;
#X connect 4 1 22 0;
#X connect 9 0 3 1;
#X connect 11 0 10 0;
#X connect 13 0 24 0;
#X connect 15 0 21 0;
#X connect 15 1 17 0;
#X connect 16 0 17 0;
#X connect 17 0 14 0;
#X connect 18 0 19 0;
#X connect 20 0 9 0;
#X connect 21 0 16 0;
#X connect 22 0 9 0;
#X connect 23 0 13 0;
#X connect 24 0 3 0;
#X connect 25 0 2 0;
