#N canvas 358 233 577 458 10;
#X obj 142 -53 inlet;
#X obj 142 -18 unpack f f;
#X obj 142 93 mtof;
#X obj 142 168 osc~;
#X obj 142 231 *~;
#X obj 242 85 sel 0;
#X floatatom 94 28 5 0 0 0 - - -;
#X text 18 28 note number;
#X floatatom 244 28 5 0 0 0 - - -;
#X text 283 29 velocity;
#X obj 276 183 vline~;
#X obj 199 276 outlet;
#X obj 199 246 != 0;
#X obj 143 55 + 12;
#X obj 450 102 switch~;
#X obj 411 -2 route 0;
#X msg 397 53 0;
#X floatatom 450 70 5 0 0 0 - - -;
#X obj 141 303 *~ 0.25;
#X obj 141 334 throw~ synthaudio;
#X msg 244 132 0 200;
#X obj 397 24 del 200;
#X msg 303 132 1 200;
#X connect 0 0 1 0;
#X connect 1 0 6 0;
#X connect 1 0 13 0;
#X connect 1 1 5 0;
#X connect 1 1 8 0;
#X connect 1 1 12 0;
#X connect 1 1 15 0;
#X connect 2 0 3 0;
#X connect 3 0 4 0;
#X connect 4 0 18 0;
#X connect 5 0 20 0;
#X connect 5 1 22 0;
#X connect 10 0 4 1;
#X connect 12 0 11 0;
#X connect 13 0 2 0;
#X connect 15 0 21 0;
#X connect 15 1 17 0;
#X connect 16 0 17 0;
#X connect 17 0 14 0;
#X connect 18 0 19 0;
#X connect 20 0 10 0;
#X connect 21 0 16 0;
#X connect 22 0 10 0;
